<?xml version="1.0" encoding="utf-8"?>
<svg viewBox="0 0 256 329" xmlns="http://www.w3.org/2000/svg">
  <path d="M 91.786 195.376 C 84.858 190.846 77.467 186.505 72.416 180.388 C 61.786 169.601 53.603 157.115 48.01 143.991 C 44.626 135.456 43.469 126.308 39.105 118.104 C 34.549 112.144 39.89 105.634 47.744 103.741 C 51.238 103.182 57.384 100.439 49.964 102.402 C 43.311 106.456 42.67 98.716 49.492 98.225 C 54.147 97.712 55.86 94.546 54.268 91.697 C 49.267 88.985 66.386 86.011 57.772 81.967 C 48.804 73.922 70.319 72.374 65.01 81.511 C 63.741 88.536 80.049 80.22 76.263 88.336 C 80.111 92.233 90.667 89.224 90.402 94.688 C 96.005 95.009 97.929 98.925 103.183 99.226 C 108.638 101.272 118.516 102.883 120.37 107.989 C 114.963 111.546 102.445 100.641 101.84 110.488 C 103.477 125.04 103.059 140.03 109.462 153.887 C 112.49 162.275 119.836 168.878 126.467 175.414 C 132.814 181.812 141.409 186.32 150.172 190.113 C 157.857 193.124 166.142 195.121 174.52 196.376 C 177.916 194.216 183.914 186.188 189.209 189.571 C 189.466 193.381 178.697 197.527 188.705 197.106 C 194.586 195.631 198.662 200.883 203.502 196.144 C 207.963 200.536 222.042 193.34 218.869 202.316 C 214.575 204.619 208.316 203.227 204.02 206.395 C 196.934 203.451 191.293 209.025 183.444 208.322 C 174.734 209.62 165.867 210.141 157.036 210.151 C 142.543 209.201 127.745 208.8 113.959 204.606 C 106.191 202.73 98.612 199.053 91.786 195.376 Z M 104.026 199.787 C 111.608 202.509 119.023 205.382 127.336 206.251 C 140.522 207.773 154.141 210.12 167.372 207.981 C 161.383 205.734 155.191 208.855 149.225 206.375 C 142.069 207.653 134.388 206.047 127.112 205.255 C 118.841 202.194 109.913 200.088 102.166 196.109 C 92.484 193.171 107.17 199.879 109.786 200.425 C 115.836 203.277 103.132 198.96 101.338 197.775 C 96.27 195.411 95.625 195.905 100.838 198.303 C 101.887 198.813 102.924 199.35 104.026 199.787 Z M 89.593 191.309 C 96.944 193.573 89.561 187.015 86.196 187.393 C 84.705 185.242 80.495 183.883 83.465 182.727 C 78.126 184.269 77.87 176.869 75.362 177.928 C 69.712 176.445 73.164 171.192 66.431 167.964 C 65.818 164.565 59.746 161.619 57.813 156.492 C 56.958 153.867 50.95 146.332 54.639 153.344 C 57.779 160.095 63.303 165.881 67.904 171.656 C 71.473 177.154 75.692 182.905 82.191 186.335 C 84.386 188.084 86.499 190.761 89.592 191.309 Z M 68.425 171.988 C 68.68 171.065 69.769 173.984 68.425 171.988 Z M 98.399 194.021 C 100.024 193.414 96.056 193.256 98.399 194.021 Z M 102.385 195.23 C 101.972 193.561 100.564 196.164 102.385 195.23 Z M 107.38 196.961 C 109.753 195.078 103.712 195.773 107.38 196.961 Z M 115.938 200.925 C 117.384 199.153 111.315 200.258 115.938 200.925 Z M 99.505 191.403 C 103.193 189.417 94.733 191.375 99.505 191.403 Z M 103.249 192.954 C 103.143 191.908 101.915 193.426 103.249 192.954 Z M 121.968 202.667 C 124.98 204.248 139.546 206.128 130.425 203.316 C 128.896 203.583 113.512 199.697 121.968 202.667 Z M 92.252 183.427 C 91.958 182.378 87.575 182.265 92.252 183.427 Z M 100.962 187.652 C 103.235 186.336 96.257 186.637 100.962 187.652 Z M 108.295 191.388 C 111.552 190.368 103.017 190.364 108.295 191.388 Z M 88.701 180.217 C 92.234 182.468 102.948 180.508 94.11 178.874 C 90.091 177.093 81.031 175.874 87.206 179.948 L 88.701 180.217 Z M 113.263 192.676 C 114.735 190.595 107.092 191.486 113.263 192.676 Z M 105.8 187.749 C 114.432 189.777 98.538 183.206 103.668 186.999 L 104.807 187.428 L 105.8 187.749 Z M 120.763 194.936 C 128.939 195.001 113.375 193.997 120.763 194.936 Z M 85.556 176.285 C 85.235 175.019 83.54 176.39 85.556 176.285 Z M 134.595 201.385 C 134.812 199.1 131.926 203.089 134.595 201.385 Z M 99.514 183.387 C 99.017 182.183 96.959 183.338 99.514 183.387 Z M 86.331 175.49 C 91.026 175.255 79.902 173.772 86.331 175.49 Z M 70.715 167.101 C 70.131 165.228 65.61 163.738 70.715 167.101 Z M 111.71 188.726 C 110.851 187.91 111.306 188.903 111.71 188.726 Z M 137.224 201.741 C 137.145 200.494 135.835 202.212 137.224 201.741 Z M 109.453 186.787 C 109.914 185.181 105.448 186.3 109.453 186.787 Z M 90.444 176.772 C 93.939 176.463 84.844 174.811 90.444 176.772 Z M 122.598 193.381 C 128.043 191.588 117.291 192.507 122.598 193.381 Z M 105.875 183.944 C 112.147 184.616 98.408 180.396 104.495 183.565 L 105.875 183.944 Z M 127.674 195.087 C 133.535 192.179 131.603 201.903 137.615 195.909 C 143.542 192.31 132.493 200.358 139.799 196.551 C 145.086 193.611 152.891 197.944 157.822 199.354 C 161.365 199.212 164.814 201.903 168.451 200.265 C 175.449 198.697 154.763 197.941 160.185 195.162 C 153.783 196.712 149.054 193.318 145.903 189.907 C 138.719 188.528 130.417 185.478 126.83 180.19 C 125.366 178.209 128.94 180.472 125.567 177.229 C 121.24 174.03 119.08 170.396 116.175 166.507 C 112.705 164.97 112.297 160.44 111.947 166.357 C 111.976 162.621 107.755 160.108 106.725 161.151 C 106.705 157.554 111.242 159.359 108.068 156.698 C 107.386 152.97 105.136 149.086 104.461 144.876 C 103.413 142.848 104.312 138.503 100.875 143.096 C 99.625 147.95 100.462 137.133 102.41 140.697 C 104.964 137.059 101.489 137.488 101.349 137.989 C 103.013 134.92 102.404 130.563 100.912 132.224 C 101.8 128.968 102.317 120.244 99.589 121.792 C 101.243 118.386 102.725 106.212 95.541 110.855 C 92.632 110.889 87.592 111.732 85.213 112.717 C 92.679 116.139 84.459 113.953 81.416 113.409 C 81.022 116.575 78.01 115.208 74.247 115.238 C 80.259 115.855 71.319 120.347 67.877 118.602 C 63.397 120.379 71.739 124.821 67.966 126.195 C 68.432 128.261 61.108 125.447 61.68 130.227 C 57.335 128.705 61.084 135.896 63.259 133.463 C 70.652 135.128 68.462 138.917 68.648 142.519 C 67.444 144.616 62.7 137.588 67.593 137.913 C 63.733 132.702 63.324 136.028 60.117 138.449 C 59.375 138.624 68.295 141.894 62.696 143.509 C 67.621 144.142 67.765 147.726 68.77 149.993 C 71.729 152.557 71.119 147.161 74.666 150.245 C 72.421 147.498 62.789 142.508 70.545 144.108 C 70.503 141.347 69.141 139.118 71.52 139.171 C 73.875 135.629 69.053 147.908 74.359 143.404 C 75.827 142.872 76.195 139.859 78.833 143.69 C 82.666 146.826 80.218 149.096 74.81 146.224 C 75.776 148.954 82.044 149.926 80.863 154.195 C 82.113 157.949 83.861 156.566 85.384 156.35 C 86.577 159.996 87.257 157.315 87.313 155.578 C 92.781 156.551 91.499 159.239 93.213 161.116 C 96.981 162.529 87.819 151.533 94.287 157.81 C 101.093 162.919 96.843 165.05 90.734 164.233 C 94.599 163.973 95.844 168.579 100.68 168.416 C 105.089 170.161 108.077 176.858 100.476 174.068 C 97.841 172.091 88.506 169.654 96.132 173.412 C 103.166 176.124 108.761 177.742 115.548 181.145 C 120.404 184.026 122.504 187.326 124.344 187.981 C 120.261 189.602 112.041 186.687 118.146 185.795 C 114.336 185.219 110.053 183.616 113.698 187.56 C 116.803 189.714 124.687 189.486 126.105 189.73 C 124.907 191.923 122.848 192.098 126.151 192.268 C 122.466 193.901 127.336 194.156 127.675 195.087 Z M 120.139 177.394 C 117.895 175.444 117.315 171.794 119.739 174.968 C 120.985 175.386 123.722 180.937 120.139 177.394 Z M 144.685 190.355 C 146.085 190.279 144.727 191.239 144.685 190.355 Z M 116.599 172.614 C 116.51 169.666 117.407 174.887 116.599 172.614 Z M 114.159 169.887 C 111.335 165.357 117.713 171.169 114.159 169.887 Z M 84.59 152.925 C 86.249 152.557 85.406 155.279 84.59 152.925 Z M 108.123 163.526 C 109.141 160.347 109.317 166.191 108.123 163.526 Z M 91.499 153.917 C 90.328 152.163 93.949 155.562 91.499 153.917 Z M 105.763 157.716 C 103.092 152.743 107.659 154.998 106.359 158.532 L 105.763 157.716 Z M 81.161 144.08 C 79.968 142.447 77.993 137.657 78.629 136.194 C 79.199 138.577 84.72 146.444 81.333 139.454 C 77.592 133.596 85.808 141.354 86.652 142.817 C 87.048 144.27 84.344 142.42 86.175 145.83 C 82.833 141.949 84.204 147.974 81.161 144.08 Z M 73.559 139.724 C 73.871 135.927 75.298 142.326 73.559 139.724 Z M 76.98 140.705 C 78.611 137.839 79.744 144.698 76.98 140.705 Z M 68.752 135.414 C 65.92 133.073 63.871 130.918 68.885 133.961 C 70.813 134.023 64.592 129.061 69.351 132.385 C 74.349 133.143 71.817 139.202 68.752 135.414 Z M 73.072 135.322 C 74.717 133.966 73.946 136.655 73.072 135.322 Z M 75.735 136.028 C 73.238 132.146 78.758 137.657 75.735 136.028 Z M 70.447 131.831 C 62.219 125.739 80.784 135.012 71.79 132.958 L 70.447 131.831 Z M 94.026 143.215 C 90.464 141.442 93.079 130.722 94.296 138.052 C 97.759 137.12 94.104 141.841 96.684 141.795 C 96.28 144.771 95.123 145.842 94.026 143.215 Z M 102.748 147.502 C 103.096 144.27 103.482 149.712 102.748 147.502 Z M 101.233 146.255 C 101.623 144.876 101.271 147.88 101.233 146.255 Z M 72.059 129.829 C 66.772 123.766 87.424 135.961 75.447 131.366 C 74.195 131.093 72.687 130.996 72.059 129.829 Z M 88.855 137.23 C 88.354 132.125 89.971 138.074 88.855 137.23 Z M 101.604 144.029 C 102.59 141.122 101.68 145.954 101.604 144.029 Z M 72.872 127.516 C 76.013 126.956 85.891 132.1 76.821 128.984 C 75.813 128.056 73.663 128.478 72.872 127.516 Z M 99.852 138.693 C 100.189 133.471 101.731 135.576 99.866 139.442 L 99.852 138.692 Z M 75.209 125.697 C 76.49 124.136 71.806 118.642 75.883 123.728 C 77.643 124.89 80.979 125.674 78.033 126.164 C 82.665 129.559 76.905 127.083 75.209 125.697 Z M 98.518 137.063 C 99.402 131.116 99.3 140.547 98.518 137.063 Z M 72.532 120.205 C 73.513 119.857 73.052 121.29 72.532 120.205 Z M 78.614 123.214 C 80.179 120.483 81.499 126.257 78.614 123.214 Z M 95.764 131.142 C 95.75 130.096 96.089 132.668 95.764 131.142 Z M 94.77 129.316 C 92.391 124.434 96.987 131.9 94.77 129.316 Z M 93.31 126.114 C 92.911 124.098 94.666 128.648 93.31 126.114 Z M 95.689 122.901 C 94.053 120.51 97.752 112.357 98.166 117.413 C 96.442 121.352 97.67 123.554 98.867 118.27 C 101.088 114.115 98.388 126.478 95.689 122.901 Z M 98.134 110.777 C 98.844 110.051 98.29 111.654 98.134 110.777 Z M 94.05 177.642 C 93.083 176.938 94.174 178.085 94.05 177.642 Z M 102.46 181.176 C 107.138 182.176 107.114 180.572 102.885 180.094 C 100.615 178.337 93.436 176.472 99.862 179.878 C 100.284 180.774 101.628 180.75 102.46 181.176 Z M 85.854 172.006 C 88.427 173.607 95.559 176.533 89.524 172.617 C 91.559 170.651 85.63 169.605 87.596 168.288 C 82.592 165.743 83.646 165.97 87.155 166.051 C 81.142 163.815 88.023 163.985 87.699 162.839 C 85.38 162.46 76.179 159.439 81.592 163.086 C 76.092 160.756 80.282 163.954 78.618 163.618 C 72.991 162.344 83.628 167.179 77.727 165.979 C 80.951 168.102 86.411 171.424 79.088 168.226 C 78.126 169.381 84.33 171.13 85.853 172.006 Z M 94.649 176.208 C 105.341 179.071 89.402 172.705 94.649 176.208 Z M 139.671 198.879 C 139.811 197.114 138.212 200.385 139.671 198.879 Z M 144.3 200.498 C 146.767 198.513 144.402 203.664 148.388 200.011 C 148.43 197.396 148.267 195.852 143.806 199.029 C 142.574 199.597 142.027 202.003 144.3 200.498 Z M 70.841 162.152 C 70.083 159.676 65.53 159.687 70.841 162.152 Z M 75.78 164.843 C 73.944 162.314 69.232 162.553 75.78 164.843 Z M 103.895 178.935 C 106.642 180.963 116.5 180.423 107.227 179.187 C 105.855 177.499 98.511 177.905 103.895 178.935 Z M 142.538 198.776 C 146.762 195.828 138.446 200.089 142.538 198.776 Z M 151.325 203.792 C 151.351 202.846 149.504 204.206 151.325 203.792 Z M 151.339 202.467 C 156.018 198.351 146.808 202.711 151.339 202.467 Z M 58.686 153.693 C 54.7 148.966 56.21 146.841 52.363 142.98 C 51.632 140.026 45.766 133.328 49.328 140.422 C 52.589 144.574 53.557 151.001 58.687 153.693 Z M 149.87 201.158 C 158.481 196.534 146.339 199.145 149.87 201.158 Z M 156.44 203.298 C 160.752 200.223 153.712 202.656 156.44 203.298 Z M 69.377 156.925 C 70.608 155.399 66.19 156.728 69.377 156.925 Z M 155.07 201.836 C 159.241 199.602 154.107 199.945 154.312 202.042 L 155.07 201.836 Z M 98.44 172.169 C 98.296 170.655 96.234 172.297 98.44 172.169 Z M 101.939 173.841 C 100.823 171.972 100.229 174.135 101.939 173.841 Z M 161.765 203.348 C 167.113 200.141 158.527 202.733 160.645 203.958 L 161.765 203.348 Z M 159.716 202.526 C 164.074 199.493 155.12 203.869 159.716 202.526 Z M 170.179 208.313 C 173.102 206.688 166.625 207.789 170.179 208.313 Z M 72.059 155.825 C 75.976 156.554 87.719 163.845 80.794 156.33 C 77.244 155.458 79.372 148.248 75.752 149.522 C 78.182 152.897 77.749 154.329 72.648 152.206 C 66.241 149.603 69.046 153.492 70.302 154.566 C 68.591 154.89 72.56 155.798 72.058 155.825 Z M 54.202 144.104 C 54.903 141.689 47.74 130.834 50.82 138.662 C 51.931 140.303 51.814 143.411 54.202 144.104 Z M 86.977 160.9 C 84.956 159.498 86.879 160.698 86.977 160.9 Z M 91.944 161.862 C 91.944 159.305 86.453 160.822 91.944 161.862 Z M 135.016 184.428 C 134.194 182.68 131.769 184.388 135.016 184.428 Z M 137.084 185.682 C 136.776 184.706 135.89 185.871 137.084 185.682 Z M 154.154 194.623 C 155.796 193.615 152.106 194.492 154.154 194.623 Z M 63.118 145.996 C 67.816 144.486 58.087 144.918 63.118 145.996 Z M 131.224 181.657 C 131.17 179.133 128.227 182.287 131.224 181.657 Z M 61.265 142.4 C 64.28 141.555 58.471 141.846 61.265 142.4 Z M 70.018 145.927 C 69.966 145.096 69.094 146.243 70.018 145.927 Z M 176.814 200.361 C 180.694 199.709 189.536 202.004 190.962 199.509 C 186.251 199.412 174.668 196.744 174.118 200.141 L 175.152 200.278 L 176.815 200.361 Z M 72.801 146.509 C 72.872 143.949 70.399 146.413 72.801 146.509 Z M 49.785 133.236 C 48.74 128.357 45.808 132.497 49.785 133.236 Z M 55.271 134.382 C 55.341 132.814 50.248 132.973 55.271 134.382 Z M 58.408 135.665 C 57.502 135.054 57.701 136.433 58.408 135.665 Z M 78.149 146.189 C 79.08 145.478 75.947 145.664 78.149 146.189 Z M 56.322 132.776 C 55.788 129.092 49.96 132.224 56.322 132.776 Z M 45.063 126.705 C 44.905 125.006 43.966 127.345 45.063 126.705 Z M 46.74 125.655 C 46.466 123.638 45.3 125.908 46.74 125.655 Z M 55.987 130.243 C 59.899 128.968 48.864 127.6 55.189 130.003 L 55.987 130.243 Z M 179.784 193.804 C 182.289 191.896 176.606 193.214 179.784 193.804 Z M 194.741 200.245 C 195.745 197.782 192.214 200.571 194.741 200.245 Z M 56.933 126.214 C 57.347 123.828 53.83 126.689 56.933 126.214 Z M 43.772 118.884 C 43.065 115.517 43.162 109.603 49.923 111.6 C 40.899 113.091 56.172 120.926 54.244 114.74 C 58.04 114.895 61.669 112.875 59.675 115.937 C 67.156 115.254 72.337 109.863 79.562 110.62 C 85.187 109.998 91.34 109.531 97.405 107.646 C 102.389 107.348 107.189 102.888 104.458 100.242 C 97.659 99.764 90.54 100.47 83.028 101.713 C 74.701 103.149 67.139 105.884 58.737 107.059 C 50.545 107.974 60.382 109.577 58.036 109.935 C 53.765 111.168 63.133 111.998 57.482 113.3 C 53.993 112.747 50.36 111.752 51.851 108.693 C 44.008 109.542 37.113 112.245 43.312 118.879 L 43.773 118.883 Z M 62.678 110.881 C 64.513 105.251 72.527 115.517 65.688 111.632 C 64.875 111.121 63.527 110.707 62.678 110.881 Z M 63.034 108.152 C 65.688 106.51 64.443 109.075 63.034 108.152 Z M 66.404 108.198 C 66.646 105.607 74.122 109.569 67.635 109.129 L 66.404 108.197 Z M 71.014 106.657 C 72.699 105.019 71.502 108.109 71.014 106.657 Z M 72.193 106.001 C 75 103.201 88.07 104.212 78.502 105.727 C 75.937 104.119 73.972 106.672 72.193 106.001 Z M 89.254 103.814 C 88.832 96.163 97.733 106.53 89.254 103.814 Z M 94.096 103.791 C 95.865 99.937 100.967 102.243 94.919 103.015 C 95.047 103.428 94.737 105.009 94.096 103.791 Z M 55.025 124.237 C 60.311 121.545 49.411 121.901 55.025 124.237 Z M 58.937 125.136 C 60.792 123.5 54.903 124.472 58.937 125.136 Z M 47.414 118.344 C 50.434 116.412 43.837 117.61 47.414 118.344 Z M 203.568 199.544 C 203.656 197.303 201.259 200.551 203.568 199.544 Z M 187.7 190.54 C 188.151 187.966 185.661 190.765 187.7 190.54 Z M 207.931 200.412 C 212.155 200.425 220.731 199.319 211.54 199.323 C 210.096 199.509 203.136 199.47 207.931 200.412 Z M 62.375 123.556 C 65.796 123.363 67.723 120.424 61.711 120.59 C 52.394 119.792 69.929 123.244 60.518 122.255 C 59.254 122.951 62.301 123.749 62.375 123.556 Z M 65.387 124.824 C 65.028 123.001 64.326 125.793 65.387 124.824 Z M 68.959 116.906 C 70.441 115.376 66.905 116.497 68.959 116.906 Z M 57.584 101.107 C 63.69 99.385 72.035 97.446 74.916 101.958 C 71.984 99.026 73.731 96.137 76.5 100.428 C 80.417 104.766 82.376 98.454 79.831 96.999 C 82.736 99.995 86.035 101.414 81.774 97.188 C 86.405 92.557 72.503 97.794 69.344 97.739 C 67.826 98.307 53.65 100.745 57.585 101.107 Z M 61.162 95.416 C 64.642 93.234 73.201 96.717 67.708 93.245 C 67.17 92.851 55.684 95.879 61.162 95.416 Z M 73.852 95.851 C 77.921 95.936 72.096 91.302 76.946 93.403 C 76.152 91.241 71.297 90.834 68.923 89.97 C 67.58 91.948 71.654 95.879 73.852 95.851 Z M 63.387 86.277 C 64.796 84.691 60.915 87.084 63.387 86.277 Z M 68.575 87.308 C 75.138 86.585 66.901 84.96 67.248 87.25 L 68.574 87.308 Z M 58.89 81.013 C 54.267 75.996 67.584 81.855 62.886 76.602 C 58.931 73.987 55.136 79.549 58.89 81.013 Z M 118.199 107.565 C 120.319 104.443 109.452 103.356 116.773 106.459 C 117.447 106.646 117.294 107.78 118.199 107.565 Z M 75.164 223.81 C 74.694 225.35 74.404 227.932 74.296 231.557 C 74.296 232.27 73.911 232.626 73.136 232.626 C 72.362 232.626 71.823 232.315 71.52 231.695 C 70.691 230.019 69.906 228.851 69.157 228.183 C 68.274 227.404 67.101 226.933 65.636 226.772 C 64.063 226.566 60.142 226.462 53.873 226.462 C 52.438 226.462 51.497 226.588 51.057 226.842 C 50.781 227.002 50.643 227.346 50.643 227.875 L 50.643 243.472 C 50.643 244 51.043 244.251 51.842 244.23 C 54.302 244.206 57.864 244.067 62.529 243.816 C 63.441 243.724 64.056 243.476 64.374 243.075 C 64.694 242.673 65.004 241.636 65.306 239.959 C 65.497 239.041 66.148 238.684 67.252 238.893 C 68.192 239.053 68.594 239.41 68.456 239.959 C 67.682 243.083 67.431 247.146 67.706 252.15 C 67.737 252.746 67.282 253.068 66.342 253.114 C 65.566 253.183 65.083 252.838 64.892 252.081 C 64.176 249.212 62.84 247.678 60.895 247.483 C 58.949 247.288 55.778 247.19 51.388 247.19 C 50.89 247.19 50.643 247.339 50.643 247.637 L 50.643 263.133 C 50.643 264.28 51.152 265.062 52.174 265.473 C 52.977 265.818 54.702 266.128 57.352 266.404 C 58.706 266.518 59.298 267.013 59.135 267.884 C 58.967 268.642 57.754 268.94 55.487 268.779 C 48.943 268.342 43.543 268.366 39.292 268.85 C 38.103 268.987 37.512 268.584 37.512 267.645 C 37.512 267.046 38.103 266.703 39.292 266.611 C 41.999 266.357 43.35 264.384 43.35 260.689 L 43.35 231.213 C 43.35 229.7 43.024 228.534 42.378 227.719 C 41.727 226.904 40.519 226.163 38.754 225.498 C 37.648 225.084 37.234 224.523 37.511 223.81 C 37.648 223.374 37.869 223.133 38.172 223.088 C 38.449 223.018 39.182 223.065 40.368 223.226 C 42.107 223.455 46.21 223.571 52.671 223.571 C 60.294 223.571 66.878 223.432 72.431 223.156 C 74.28 223.064 75.207 223.191 75.207 223.536 C 75.207 223.628 75.193 223.719 75.164 223.81 Z M 102.029 267.519 C 102.029 268.438 101.407 268.839 100.165 268.725 C 96.355 268.426 91.632 268.471 85.999 268.861 C 84.865 268.954 84.169 268.931 83.905 268.795 C 83.643 268.656 83.513 268.277 83.513 267.656 C 83.513 267.107 84.263 266.642 85.769 266.262 C 87.277 265.885 88.027 264.753 88.027 262.872 L 88.027 231.71 C 88.027 229.849 87.702 228.484 87.055 227.611 C 86.404 226.739 85.266 226.062 83.637 225.581 C 82.78 225.327 82.351 224.972 82.351 224.512 C 82.351 223.823 82.972 223.307 84.215 222.962 C 86.094 222.458 88.041 221.678 90.057 220.621 C 91.714 219.795 92.764 219.384 93.205 219.384 C 94.227 219.384 94.739 219.967 94.739 221.138 C 94.739 221.047 94.683 222.195 94.571 224.582 C 94.491 226.853 94.463 229.091 94.491 231.296 L 94.655 262.043 C 94.655 263.445 95.069 264.461 95.898 265.092 C 96.726 265.723 98.15 266.142 100.165 266.348 C 101.407 266.462 102.029 266.852 102.029 267.519 Z M 139.495 265.489 C 139.495 265.972 138.439 266.701 136.327 267.674 C 134.213 268.652 132.522 269.139 131.252 269.139 C 130.174 269.139 129.223 268.704 128.394 267.831 C 127.566 266.958 126.983 266.522 126.653 266.522 C 126.405 266.522 125.093 266.994 122.717 267.934 C 120.344 268.876 117.953 269.347 115.551 269.347 C 113.287 269.347 111.394 268.795 109.876 267.695 C 108.219 266.477 107.39 264.825 107.39 262.735 C 107.39 258.764 112.859 255.917 123.796 254.196 C 125.672 253.897 126.626 253.265 126.653 252.303 L 126.737 250.098 C 126.903 246.334 124.901 244.453 120.729 244.453 C 119.542 244.453 118.417 245.335 117.352 247.102 C 116.292 248.872 114.763 249.823 112.775 249.961 C 110.512 250.143 109.378 249.352 109.378 247.585 C 109.378 246.482 111.063 245.199 114.431 243.728 C 117.967 242.191 121.365 241.421 124.625 241.421 C 130.23 241.421 133.004 243.638 132.95 248.067 L 132.783 262.252 C 132.757 263.745 133.517 264.49 135.063 264.49 C 135.367 264.49 135.947 264.433 136.802 264.318 C 137.66 264.203 138.157 264.145 138.295 264.145 C 139.094 264.145 139.495 264.595 139.495 265.489 Z M 126.737 257.64 C 126.765 257.065 126.604 256.685 126.259 256.505 C 125.913 256.321 125.37 256.284 124.625 256.399 C 117.967 257.387 114.64 259.189 114.64 261.806 C 114.64 264.445 116.366 265.765 119.817 265.765 C 121.199 265.765 122.623 265.547 124.083 265.112 C 125.798 264.605 126.653 263.998 126.653 263.285 L 126.737 257.64 Z M 170.292 261.528 C 170.292 263.962 169.165 265.897 166.915 267.331 C 164.666 268.766 161.594 269.483 157.698 269.483 C 155.103 269.483 152.505 269.254 149.911 268.795 C 147.672 268.381 146.375 268.002 146.016 267.659 C 145.794 267.335 145.685 265.765 145.685 262.941 C 145.685 261.724 146.016 261.093 146.679 261.047 C 147.342 260.978 147.909 261.277 148.379 261.942 C 150.449 264.95 153.79 266.453 158.404 266.453 C 162.295 266.453 164.242 265.328 164.242 263.078 C 164.242 262.092 163.803 261.264 162.917 260.599 C 161.949 259.842 160.075 258.958 157.284 257.947 C 153.251 256.456 150.558 255.148 149.206 254.023 C 147.742 252.828 147.011 251.222 147.011 249.202 C 147.011 246.721 148.157 244.796 150.449 243.418 C 152.575 242.085 155.419 241.421 158.98 241.421 C 161.219 241.421 163.262 241.568 165.114 241.868 C 167.102 242.166 168.137 242.533 168.221 242.97 C 168.44 244.253 168.898 246.115 169.588 248.55 C 169.671 248.845 169.283 249.087 168.429 249.271 C 167.515 249.432 166.909 249.304 166.605 248.892 C 164.424 245.93 161.663 244.45 158.319 244.45 C 154.536 244.45 152.644 245.46 152.644 247.48 C 152.644 248.606 153.156 249.499 154.177 250.165 C 155.089 250.739 157.229 251.636 160.598 252.853 C 164.132 254.114 166.536 255.251 167.807 256.26 C 169.464 257.568 170.292 259.326 170.292 261.528 Z M 219.028 267.554 C 219.028 268.358 218.378 268.782 217.08 268.828 C 215.146 268.852 212.618 268.966 209.501 269.172 C 207.952 269.427 206.848 269.266 206.186 268.692 C 201.822 264.789 198.12 260.703 195.081 256.432 C 194.834 256.066 194.517 255.882 194.129 255.882 C 193.66 255.882 192.847 256.227 191.687 256.916 C 190.387 257.511 189.74 258.362 189.74 259.461 C 189.74 260.244 189.765 261.367 189.823 262.838 C 189.879 264.306 190.318 265.269 191.146 265.73 C 191.726 266.052 193.068 266.303 195.166 266.487 C 196.462 266.626 197.113 267.028 197.113 267.693 C 197.113 268.22 197.009 268.549 196.802 268.672 C 196.596 268.8 196.048 268.828 195.166 268.76 C 192.403 268.553 187.737 268.668 181.165 269.103 C 179.508 269.217 178.61 269.046 178.471 268.586 C 178.417 268.428 178.387 268.197 178.387 267.898 C 178.387 267.187 179.231 266.647 180.917 266.282 C 182.435 265.958 183.194 264.478 183.194 261.839 L 183.194 231.744 C 183.194 229.862 182.974 228.555 182.53 227.82 C 181.924 226.878 180.651 226.143 178.718 225.615 C 177.809 225.364 177.352 225.008 177.352 224.548 C 177.352 223.881 178.003 223.366 179.299 222.999 C 181.387 222.419 183.377 221.62 185.222 220.622 C 186.743 219.797 187.682 219.384 188.039 219.384 C 189.173 219.384 189.74 219.979 189.74 221.175 C 189.74 221.012 189.725 222.152 189.695 224.583 C 189.667 226.832 189.653 229.082 189.655 231.332 L 189.74 252.886 C 189.74 253.484 189.932 253.78 190.318 253.78 C 190.732 253.78 191.368 253.484 192.224 252.886 C 194.517 251.393 197.333 249.442 200.674 247.033 C 201.338 246.458 201.669 246 201.669 245.655 C 201.669 245.036 200.55 244.598 198.315 244.348 C 197.349 244.253 196.891 243.807 196.946 243.003 C 197.029 242.201 197.512 241.856 198.395 241.971 C 200.386 242.201 203.286 242.327 207.094 242.351 C 209.747 242.371 212.384 242.384 215.01 242.384 C 215.862 242.408 216.292 242.832 216.292 243.659 C 216.292 244.438 215.616 244.864 214.263 244.934 C 212.135 245.001 210.132 245.402 208.258 246.138 C 205.633 247.123 202.829 248.857 199.846 251.337 C 199.626 251.476 199.514 251.647 199.514 251.854 C 199.514 252.174 199.983 252.944 200.923 254.161 C 204.376 258.523 207.635 261.814 210.7 264.043 C 212.661 265.443 214.497 266.143 216.208 266.143 C 217.479 266.143 218.267 266.218 218.569 266.367 C 218.875 266.517 219.028 266.913 219.028 267.554 Z" style="fill: rgb(255, 255, 255);"/>
</svg>