<?xml version="1.0" encoding="utf-8"?>
<svg viewBox="-0.004 -5.603 388.133 269.897" xmlns="http://www.w3.org/2000/svg">
  <path d="m93.312 240.773h-14.975c-.527-25.345-1.987-49.177-4.373-71.501h-.132l-22.8 71.501h-11.404l-22.663-71.501h-.134c-1.681 21.44-2.74 45.272-3.18 71.501h-13.655c.882-31.899 3.09-61.802 6.625-89.715h18.561l21.606 65.92h.132l21.739-65.92h17.76c3.889 32.691 6.185 62.603 6.89 89.715m64.965-66.19c-6.099 33.177-14.143 57.287-24.127 72.328-7.78 11.589-16.302 17.383-25.582 17.383-2.474 0-5.525-.747-9.145-2.231v-7.998c1.769.26 3.844.398 6.23.398 4.33 0 7.819-1.2 10.473-3.594 3.18-2.918 4.77-6.198 4.77-9.832 0-2.482-1.24-7.576-3.711-15.281l-16.436-51.173h14.712l11.796 38.272c2.65 8.69 3.756 14.756 3.313 18.214 6.452-17.278 10.959-36.108 13.523-56.486h14.183" style="fill: rgb(255, 255, 255);"/>
  <g fill="#f29111">
    <path d="m223.875 215.906c0 7.608-2.788 13.854-8.346 18.741-5.562 4.866-13.035 7.305-22.392 7.305-8.752 0-17.234-2.807-25.45-8.377l3.843-7.706c7.07 3.544 13.47 5.313 19.214 5.313 5.389 0 9.607-1.202 12.658-3.578 3.045-2.393 4.87-5.73 4.87-9.963 0-5.327-3.706-9.88-10.504-13.7-6.276-3.454-18.818-10.663-18.818-10.663-6.796-4.97-10.203-10.304-10.203-19.091 0-7.268 2.54-13.142 7.616-17.611 5.086-4.479 11.648-6.718 19.684-6.718 8.307 0 15.86 2.223 22.663 6.652l-3.456 7.7c-5.82-2.475-11.56-3.717-17.22-3.717-4.592 0-8.13 1.105-10.598 3.33-2.48 2.204-4.014 5.041-4.014 8.499 0 5.313 3.786 9.922 10.775 13.816 6.355 3.455 19.205 10.804 19.205 10.804 6.99 4.961 10.473 10.251 10.473 18.964" style="fill: rgb(255, 255, 255);"/>
    <path d="m250.647 222.826c-3.625-5.848-5.44-15.233-5.44-28.173 0-22.59 6.85-33.893 20.546-33.893 7.16 0 12.416 2.704 15.777 8.105 3.62 5.85 5.435 15.154 5.435 27.913 0 22.771-6.851 34.162-20.546 34.162-7.159 0-12.416-2.701-15.772-8.113m53.284 20.11-16.446-8.132c1.464-1.204 2.855-2.503 4.114-4.007 6.983-8.23 10.477-20.413 10.477-36.542 0-29.68-11.62-44.529-34.86-44.529-11.4 0-20.284 3.764-26.645 11.302-6.985 8.24-10.473 20.378-10.473 36.415 0 15.77 3.09 27.339 9.276 34.688 5.636 6.642 14.16 9.968 25.57 9.968 4.258 0 8.164-.526 11.714-1.577l21.418 12.497 5.84-10.084" fill-rule="evenodd" style="fill: rgb(255, 255, 255);"/>
    <path d="m357.618 240.773h-42.546v-89.715h14.317v78.679h28.229zm10.21-.009h2.372v-9.128h3.104v-1.864h-8.701v1.864h3.225zm18.051 0h2.236v-10.992h-3.363l-2.737 7.492-2.98-7.492h-3.24v10.992h2.115v-8.366h.12l3.121 8.366h1.612l3.116-8.366z" style="fill: rgb(255, 255, 255);"/>
  </g>
</svg>